<svg xmlns="http://www.w3.org/2000/svg" width="25.96" height="26" viewBox="74.006 709 25.96 26"><path d="m87.004 719.355 8.593-8.616c.368-.369.732-.742 1.105-1.106.838-.82 1.967-.845 2.726-.068.742.759.72 1.873-.092 2.69-3.076 3.096-6.163 6.18-9.244 9.27-.147.148-.287.303-.45.476.167.175.307.33.454.478 3.041 3.048 6.08 6.1 9.13 9.14.578.575.888 1.218.657 2.03-.4 1.402-2.07 1.81-3.142.752-1.692-1.667-3.36-3.358-5.037-5.04-1.553-1.559-3.104-3.12-4.7-4.723-.171.165-.322.304-.467.45-3.07 3.073-6.144 6.144-9.206 9.227-.533.537-1.14.796-1.878.64-1.3-.273-1.874-1.873-1.066-2.934.128-.167.285-.314.435-.465 3.014-3.02 6.027-6.042 9.046-9.059.148-.149.336-.258.54-.412-.228-.243-.365-.397-.51-.543-3.07-3.076-6.14-6.15-9.207-9.227-.768-.77-.898-1.73-.35-2.509.693-.987 2.007-1.085 2.909-.191 1.592 1.576 3.168 3.167 4.75 4.753L86.625 719c.107.107.221.207.379.354Z" fill="#fff" fill-rule="evenodd" data-name="Path 2781"/></svg>