<svg xmlns="http://www.w3.org/2000/svg" width="11.495" height="15.367" viewBox="35 690.816 11.495 15.367"><path d="M40.926 690.816c.377.137.637.375.716.787.01.052.093.11.154.129.507.162.76.48.732.937-.026.446-.33.746-.868.843v2.155h2.145c.05-.363.206-.658.56-.805.5-.209 1.032.057 1.2.581.033.1.12.224.21.256.465.164.73.479.72.899-.012.444-.308.76-.816.87-.019.005-.035.016-.053.024-.185.639-.446.877-.95.867-.457-.008-.729-.273-.888-.874h-2.133v5.991c.591.14.876.444.874.924-.001.466-.281.76-.855.897-.192.62-.489.898-.944.886-.45-.012-.755-.308-.893-.87-.626-.187-.884-.47-.87-.95.014-.459.285-.738.878-.893v-5.977h-2.144c-.138.59-.431.866-.916.868-.475 0-.761-.269-.907-.878-.447-.04-.734-.303-.878-.733v-.356c.127-.31.299-.584.652-.66.176-.039.25-.123.293-.298a.857.857 0 0 1 .823-.644.875.875 0 0 1 .848.574c.037.097.058.201.085.299h2.143v-2.136c-.57-.136-.85-.416-.876-.862-.026-.463.2-.738.762-.942.052-.019.119-.074.128-.122.075-.413.336-.65.713-.787h.355Z" fill="#fff" fill-rule="evenodd" data-name="Path 3346"/></svg>